<?xml version="1.0" encoding="utf-8"?>
<!-- Generator: Adobe Illustrator 19.2.1, SVG Export Plug-In . SVG Version: 6.00 Build 0)  -->
<svg version="1.1" id="Layer_1" xmlns="http://www.w3.org/2000/svg" xmlns:xlink="http://www.w3.org/1999/xlink" x="0px" y="0px"
	 viewBox="0 0 156 79.2" style="enable-background:new 0 0 156 79.2;" xml:space="preserve">
<style type="text/css">
	.st0{fill:#2F434F;}
	.st1{fill:#2DA5DE;}
</style>
<g>
	<g>
		<g>
			<path class="st0" d="M10.1,18.2L4.6,6.4H1.3l8.8,19.2l8.8-19.2h-3.3L10.1,18.2z M36.6,14.1c-2.4-0.5-4.5-1.2-4.5-2.7
				c0-1.8,1.9-2.6,3.5-2.6c1.8,0,3,0.9,3.8,2.2l2.5-1.7c-1.2-2.4-3.5-3.4-6.1-3.4c-3.3,0-6.7,1.9-6.7,5.5c0,3.9,2.9,4.6,6.3,5.4
				c1.9,0.4,3.8,1,3.8,3c0,2-2.1,2.9-3.9,2.9c-2.1,0-3.4-1-4.6-2.5l-2.4,1.9c1.8,2.6,3.9,3.5,6.9,3.5c3.5,0,7.1-1.6,7.1-5.9
				C42.4,15.9,39.7,14.7,36.6,14.1z M53.5,22.7c-2.6,0-2.7-1.9-2.7-4.3V9h5.3V6.4h-5.3V1.1h-3v5.3H44V9h3.9v10.3
				c0,3.9,0.7,6.3,4.9,6.3c1.1,0,2.4-0.2,3.5-0.7L56.1,22C55.3,22.5,54.4,22.7,53.5,22.7z M154.3,22c-0.8,0.4-1.8,0.6-2.6,0.6
				c-2.6,0-2.7-1.9-2.7-4.3V9h5.3V6.4h-5.3V1.1h-3v5.3h-3.9V9h3.9v10.3c0,3.9,0.7,6.3,4.9,6.3c1.1,0,2.4-0.2,3.5-0.7L154.3,22z
				 M90.7,5.9c-2.6,0-4.8,1.2-6.4,3.2h-0.1V6.4h-3v25.8h3V21.7h0.1c1.1,2.1,3.7,3.8,6.9,3.8c5,0,8.9-4.2,8.9-9.8
				C100.1,10,96.3,5.9,90.7,5.9z M90.6,22.7c-3.8,0-6.3-3-6.3-6.9c0-3.9,2.5-7,6.3-7c3.8,0,6.3,3,6.3,7
				C96.9,19.6,94.4,22.7,90.6,22.7z M74,9.1L74,9.1c-1.7-2-3.9-3.2-6.5-3.2c-5.6,0-9.4,4.1-9.4,9.8c0,5.6,3.9,9.8,8.9,9.8
				c3.2,0,5.8-1.7,6.9-3.8H74v3.3h3V6.4h-3V9.1z M67.7,22.7c-3.9,0-6.3-3-6.3-6.9c0-3.9,2.5-7,6.3-7c3.8,0,6.3,3,6.3,7
				C74,19.6,71.5,22.7,67.7,22.7z M106,9.5L106,9.5c-0.1-1-0.2-2.1-0.2-3.1H103c0,1.2,0.2,2.7,0.2,4.4v14.2h3V16
				c0-4.3,1.6-6.9,5.2-6.9c0.5,0,1.1,0.1,1.6,0.2l0.2-3.2c-0.4-0.2-0.8-0.2-1.2-0.2C109,5.9,106.8,7.6,106,9.5z M133.2,5.9
				c-2.9,0-5.1,1.7-5.9,3.6h-0.1c0-1-0.1-2.1-0.1-3.1h-2.8c0,1.2,0.2,2.7,0.2,4.4v14.2h3V16c0-4.3,1.7-7.2,5.5-7.2
				c2.8,0,4.1,2,4.1,5.1v11.2h3V13.5C140,9,137.9,5.9,133.2,5.9z M22.2,25.1h3V6.4h-3V25.1z M23.7,0.9c-1,0-1.8,0.8-1.8,1.8
				c0,1,0.8,1.8,1.8,1.8c1,0,1.8-0.8,1.8-1.8C25.5,1.7,24.7,0.9,23.7,0.9z M116.6,25.1h3V6.4h-3V25.1z M118.1,0.9
				c-1,0-1.8,0.8-1.8,1.8c0,1,0.8,1.8,1.8,1.8c1,0,1.8-0.8,1.8-1.8C119.8,1.7,119,0.9,118.1,0.9z"/>
		</g>
	</g>
	<g>
		<g>
			<path class="st1" d="M153.1,37.3H2.7c-0.9,0-1.6,0.7-1.6,1.6v37.9c0,0.9,0.7,1.6,1.6,1.6h150.4c0.9,0,1.6-0.7,1.6-1.6V38.9
				C154.6,38,153.9,37.3,153.1,37.3z M18.8,69.1H9.7V46.6h9.1c6.9,0,11.4,4.5,11.4,11.2C30.2,64.6,25.7,69.1,18.8,69.1z M40.1,69.1
				h-4.4V46.6h4.4V69.1z M57.5,69.5c-6.1,0-11.5-4.4-11.5-11.6c0-6.8,4.8-11.6,11.6-11.6c3.5,0,6.4,1.3,8.3,3.4l-3.2,3.2
				c-1.2-1.5-3.1-2.4-5.3-2.4c-4,0-6.9,3-6.9,7.4c0,4.6,3.1,7.5,6.9,7.5c3.6,0,5.7-1.8,6.2-5h-5.6v-3.7h10.1c0,0.4,0.1,0.8,0.1,1.3
				C68.2,64.7,63.7,69.5,57.5,69.5z M78.6,69.1h-4.4V46.6h4.4V69.1z M95.3,69.1h-4.4V50.8h-6.8v-4.2h18v4.2h-6.8V69.1z M119.4,69.4
				L113,51.2l-6.5,18.2H102l8.4-22.4h5.2l8.4,22.4H119.4z M145.7,69.4h-16.4V47h4.5v18.2h11.9V69.4z M18.7,50.8h-4.6v14.1h4.6
				c4.6,0,6.9-3,6.9-7C25.6,53.7,23.4,50.8,18.7,50.8z"/>
		</g>
	</g>
</g>
</svg>
